<svg viewBox="0 0 800 450" width="100%" height="auto" xmlns="http://www.w3.org/2000/svg" style="border: 1px solid var(--border); border-radius: 10px; background: var(--bg-surface); margin: 1.5rem 0;">
  <line x1="0" y1="50" x2="800" y2="50" stroke="#e2e0da" stroke-width="1"/>
  <line x1="180" y1="50" x2="180" y2="450" stroke="#e2e0da" stroke-width="1"/>
  
  <rect x="15" y="65" width="150" height="20" rx="3" fill="#e2e0da"/>
  <rect x="15" y="100" width="130" height="15" rx="3" fill="#eeedfe"/>
  <rect x="15" y="130" width="140" height="15" rx="3" fill="#e2e0da"/>
  <rect x="15" y="160" width="110" height="15" rx="3" fill="#e2e0da"/>
  <rect x="15" y="190" width="125" height="15" rx="3" fill="#e2e0da"/>
  <rect x="15" y="220" width="135" height="15" rx="3" fill="#e2e0da"/>
  
  <rect x="195" y="65" width="130" height="60" rx="6" fill="#ffffff" stroke="#e2e0da" stroke-width="1"/>
  <rect x="340" y="65" width="150" height="60" rx="6" fill="#ffffff" stroke="#e2e0da" stroke-width="1"/>
  <rect x="505" y="65" width="120" height="60" rx="6" fill="#ffffff" stroke="#e2e0da" stroke-width="1"/>
  <rect x="640" y="65" width="145" height="60" rx="6" fill="#ffffff" stroke="#e2e0da" stroke-width="1"/>

  <rect x="195" y="145" width="590" height="285" rx="8" fill="#ffffff" stroke="#e2e0da" stroke-width="1"/>
  
  <line x1="195" y1="185" x2="785" y2="185" stroke="#f7f6f3" stroke-width="2"/>
  <line x1="195" y1="220" x2="785" y2="220" stroke="#f7f6f3" stroke-width="1"/>
  <line x1="195" y1="255" x2="785" y2="255" stroke="#f7f6f3" stroke-width="1"/>
  <line x1="195" y1="290" x2="785" y2="290" stroke="#f7f6f3" stroke-width="1"/>
  <line x1="195" y1="325" x2="785" y2="325" stroke="#f7f6f3" stroke-width="1"/>
  <line x1="195" y1="360" x2="785" y2="360" stroke="#f7f6f3" stroke-width="1"/>
  <line x1="195" y1="395" x2="785" y2="395" stroke="#f7f6f3" stroke-width="1"/>
  
  <rect x="210" y="235" width="120" height="12" rx="2" fill="#888" opacity="0.15"/>
  <rect x="360" y="270" width="240" height="12" rx="2" fill="#888" opacity="0.15"/>
  <rect x="210" y="305" width="90" height="12" rx="2" fill="#888" opacity="0.15"/>
  <rect x="640" y="235" width="110" height="12" rx="2" fill="#888" opacity="0.15"/>
  <rect x="640" y="340" width="85" height="12" rx="2" fill="#888" opacity="0.15"/>

  <rect x="0" y="0" width="800" height="50" fill="#ffffff" opacity="0.9"/>
  <circle cx="25" cy="25" r="6" fill="#e2e0da"/>
  <circle cx="45" cy="25" r="6" fill="#e2e0da"/>
  <circle cx="65" cy="25" r="6" fill="#e2e0da"/>
  
  <rect x="200" y="190" width="400" height="70" rx="8" fill="#1a1a1a" filter="drop-shadow(0px 4px 12px rgba(0,0,0,0.08))"/>
  <text x="400" y="226" font-family="-apple-system, BlinkMacSystemFont, 'Segoe UI', sans-serif" font-size="14" font-weight="600" fill="#ffffff" text-anchor="middle" letter-spacing="0.05em">
    LEGACY BACKBONE.JS ARCHITECTURE LAYOUT
  </text>
  <text x="400" y="244" font-family="-apple-system, BlinkMacSystemFont, 'Segoe UI', sans-serif" font-size="11" fill="#888" text-anchor="middle" letter-spacing="0.05em">
    [ ABSTRACTED FOR NDA COMPLIANCE ]
  </text>
</svg>
